<svg data-name="Layer 1" xmlns="http://www.w3.org/2000/svg" viewBox="0 0 24 24"><path d="M22.554.923A3.978 3.978 0 0019.263.07l-9.184 1.722A5 5 0 006 6.706v9.85A3.959 3.959 0 004 16a4 4 0 104 4v-9.124A2 2 0 019.632 8.91l11.183-2.1A1 1 0 0122 7.8v5.76a3.959 3.959 0 00-2-.56 4 4 0 104 4V4A3.987 3.987 0 0022.554.923zM4 22a2 2 0 112-2 2 2 0 01-2 2zM20.447 4.848L9.263 6.944A4 4 0 008 7.416v-.71a3 3 0 012.447-2.949l9.185-1.722A2 2 0 0122 4v.984a2.955 2.955 0 00-1.553-.136zM20 19a2 2 0 112-2 2 2 0 01-2 2z"/></svg>