<svg xmlns="http://www.w3.org/2000/svg" viewBox="0 0 24 24"><path d="M20.807 4.29a1 1 0 00-1.415 1.415 8.913 8.913 0 010 12.59 1 1 0 001.415 1.415 10.916 10.916 0 000-15.42z"/><path d="M18.1 7.291a1 1 0 00-1.42 1.415 4.662 4.662 0 010 6.588 1 1 0 001.42 1.415 6.666 6.666 0 000-9.418zM13.82.2A12.054 12.054 0 006.266 5H5a5.008 5.008 0 00-5 5v4a5.008 5.008 0 005 5h1.266a12.059 12.059 0 007.554 4.8.917.917 0 00.181.017 1 1 0 001-1V1.186A1 1 0 0013.82.2zM13 21.535a10.083 10.083 0 01-5.371-4.08A1 1 0 006.792 17H5a3 3 0 01-3-3v-4a3 3 0 013-3h1.8a1 1 0 00.837-.453A10.079 10.079 0 0113 2.465z"/></svg>